<svg id="Layer_1" data-name="Layer 1" xmlns="http://www.w3.org/2000/svg" viewBox="0 0 509.79 459"><path d="M171.93,52.33c-1.12.45-15.88.9-20.58.9-8.94,0-20.35-.23-31.53-.67C119.37,69.78,118,89.68,118,106v8c0,8.27,1.12,14.76,4.92,14.76,6.49,0,15.43-13,22.37-25.94.67-1.35,1.11-1.79,1.78-1.79,1.57,0,2.91,4,2.91,8a16.73,16.73,0,0,1-1.34,6.93c-3.13,6.26-13,26.84-29.75,26.84-18.33,0-18.78-38.25-18.78-39.81-.67-13.64-1.34-30.86-1.34-51.22v-.22C84.26,51,73.08,50.1,72.86,49.87c-2-.67-2-5.81-2-5.81s0-5.15,1.79-5.82c.23,0,9.84-1.34,26.39-2.46.45-15.43,1.57-29.3,2.46-31.31,1.34-1.56,7.6-4.47,9.84-4.47,3.58,0,7.16,2.68,7.6,3.8C119.6,5.37,120,15.88,120,32.43v2.46c5.37-.23,11-.23,17-.23,8.28,0,32.2,1.12,34.44,2.24,1.12,1.12,3.13,6.71,3.13,8.72A11.84,11.84,0,0,1,171.93,52.33Z" transform="translate(-1.44)"/><path d="M239.68,116.07c-3.35,6.26-13.19,26.84-30,26.84-31.31,0-14.09-45.63-25.5-45.63-11,0-25.27,39.14-26.61,42.72v.45c-.9,2.46-6.93,2.46-6.93,2.46s-5.82,0-6.49-2.46c-.22-.23-4-31.54-4-88.57,0-20.79,1.35-44.5,2.69-47.41C144,2.91,150.23,0,152.46,0a11.17,11.17,0,0,1,7.83,3.8c.45,1.57,1.12,12.08,1.12,28.63,0,22.59-1.34,57.47-2.46,81.4,6.26-14.31,18.34-36.67,34.89-36.67,24.15,0,7.15,51.66,20.13,51.66,6.26,0,15.43-13,22.36-25.94.67-1.35,1.12-1.79,1.79-1.79,1.56,0,2.68,4,2.91,8v.44A13.91,13.91,0,0,1,239.68,116.07Z" transform="translate(-1.44)"/><path d="M298.05,116.07c-4.25,8.5-16.55,26.84-37.8,26.84-28.85,0-39.14-19.91-39.14-32.88,0-18.11,16.11-32.87,35.79-32.87,14.53,0,26.16,8,26.16,20.57,0,13.2-12.3,20.35-26.16,20.35a44.33,44.33,0,0,1-14.09-2.46c2,8.5,9.17,12.53,17.44,12.53,17.67,0,26.39-10.07,34.67-25.27.67-1.35.89-1.79,1.78-1.79,1.57,0,2.69,4,2.69,8C299.39,111.6,299.16,114.28,298.05,116.07ZM256.9,91.92c-7.38,0-13.87,6.93-14.76,15.87,1.56.68,4.24.9,7.15.9,7.61,0,17.22-2.24,17.22-8.72C266.51,93.93,261.82,91.92,256.9,91.92Z" transform="translate(-1.44)"/><path d="M105.55,242.84c-7,13.08-27.54,56-62.56,56-38.28,0-38.75-79.84-39.21-83.1-1.4-28.48-2.34-64.43-2.34-106.92,0-43.41,2.8-92.9,5.6-99C9.38,6.61,22.45.54,27.12.54c7.47,0,14.94,5.61,16.34,7.94.93,3.27,2.33,25.21,2.33,59.76,0,42.48-4.2,105-4.2,153.59v16.81c0,17.28,2.34,30.81,10.27,30.81,13.08,0,32.22-27.07,46.69-54.15,1.4-2.8,2.33-3.74,3.73-3.74,3.27,0,5.61,8.41,5.61,16.81v2.8A28.83,28.83,0,0,1,105.55,242.84Z" transform="translate(-1.44)"/><path d="M148,298.87c-41.08,0-74.69-30.82-74.69-68.63S107,161.61,148,161.61c41.55,0,75.17,30.81,75.17,68.63S189.58,298.87,148,298.87Zm0-106.45c-16.8,0-30.81,16.81-30.81,37.82,0,20.54,14,37.81,30.81,37.81,17.28,0,31.28-17.27,31.28-37.81C179.31,209.23,165.31,192.42,148,192.42Z" transform="translate(-1.44)"/><path d="M290,298.87c-41.08,0-74.7-30.82-74.7-68.63s33.62-68.63,74.7-68.63c41.55,0,75.17,30.81,75.17,68.63S331.5,298.87,290,298.87Zm0-106.45c-16.81,0-30.81,16.81-30.81,37.82,0,20.54,14,37.81,30.81,37.81,17.27,0,31.28-17.27,31.28-37.81C321.23,209.23,307.22,192.42,290,192.42Z" transform="translate(-1.44)"/><path d="M436.07,298.87c-12.61,0-24.75-3.74-35.48-9.34,1.4,36,2.8,73.3,3.27,101.77v23.35c0,21-.47,34.08-1.4,36.41S394.52,459,387.05,459h-.47c-4.67,0-17.74-5.6-20.54-8.87-2.8-6.07-6.54-55.09-7-99,0-11.67-.47-22.87-.47-33.61,0-97.57,6.54-150.79,7-151.26,1.4-5.14,13.07-5.6,13.07-5.6s12.61,0,14.48,5.6c0,0,.46,3.27.93,8.87a73.88,73.88,0,0,1,42-13.54c41.55,0,75.16,30.81,75.16,68.63S477.62,298.87,436.07,298.87Zm0-106.45c-26.15,0-37.82,16.81-37.82,37.82,0,20.54,11.67,37.81,37.82,37.81,17.27,0,31.28-17.27,31.28-37.81C467.35,209.23,453.34,192.42,436.07,192.42Z" transform="translate(-1.44)"/><path d="M57.84,350.72H53.07V369H50.44V350.72H47.59v-2.21h2.85v-1.43q0-3.34,1.71-4.92c1.14-1.05,3-1.57,5.54-1.57v2.25a5.21,5.21,0,0,0-3.59,1,4.32,4.32,0,0,0-1,3.26v1.43h4.77Z" transform="translate(-1.44)"/><path d="M61.82,344.08a1.89,1.89,0,0,1-.57-1.39,1.81,1.81,0,0,1,.57-1.37,1.86,1.86,0,0,1,1.35-.54,1.9,1.9,0,0,1,1.35.54,1.84,1.84,0,0,1,.56,1.37,1.92,1.92,0,0,1-.56,1.39,1.87,1.87,0,0,1-1.35.56A1.84,1.84,0,0,1,61.82,344.08Zm2.66,4.43V369H61.85V348.51Z" transform="translate(-1.44)"/><path d="M86,350.4c1.55,1.52,2.33,3.71,2.33,6.59v12H85.69V357.29a7.14,7.14,0,0,0-1.67-5.1,6,6,0,0,0-4.56-1.77,6.18,6.18,0,0,0-4.73,1.88A7.76,7.76,0,0,0,73,357.82V369H70.33V348.51H73V352a6.68,6.68,0,0,1,2.82-2.87,8.5,8.5,0,0,1,4.16-1A8.25,8.25,0,0,1,86,350.4Z" transform="translate(-1.44)"/><path d="M92.4,353.18a9.16,9.16,0,0,1,3.51-3.68,9.93,9.93,0,0,1,5-1.29,9.22,9.22,0,0,1,4.88,1.31,8.05,8.05,0,0,1,3.19,3.42V341.23h2.63V369H109v-4.58a7.81,7.81,0,0,1-3.08,3.51,9.13,9.13,0,0,1-5,1.37,9.79,9.79,0,0,1-5-1.31,9.09,9.09,0,0,1-3.49-3.72,11.77,11.77,0,0,1-1.26-5.55A11.56,11.56,0,0,1,92.4,353.18ZM108,354.4a7.32,7.32,0,0,0-2.76-2.89,7.48,7.48,0,0,0-3.85-1,7.78,7.78,0,0,0-3.9,1,6.91,6.91,0,0,0-2.72,2.84,9.09,9.09,0,0,0-1,4.41,9.31,9.31,0,0,0,1,4.41A7,7,0,0,0,97.51,366a7.69,7.69,0,0,0,3.9,1,7.58,7.58,0,0,0,3.85-1,7.32,7.32,0,0,0,2.76-2.89,9.89,9.89,0,0,0,0-8.71Z" transform="translate(-1.44)"/><path d="M131.14,350.72v12.73a3.68,3.68,0,0,0,.71,2.59,3.55,3.55,0,0,0,2.52.71h2.4V369H134a5.79,5.79,0,0,1-4.13-1.29,5.73,5.73,0,0,1-1.35-4.26V350.72h-2.85v-2.21h2.85v-5.14h2.67v5.14h5.63v2.21Z" transform="translate(-1.44)"/><path d="M154.91,349.11a6.91,6.91,0,0,1,2.93,3,10.35,10.35,0,0,1,1.07,4.9v12h-2.59V357.29a7.14,7.14,0,0,0-1.67-5.1,6,6,0,0,0-4.56-1.77,6.19,6.19,0,0,0-4.73,1.88,7.8,7.8,0,0,0-1.76,5.52V369H141V341.23h2.63V352a6.83,6.83,0,0,1,2.87-2.86,8.93,8.93,0,0,1,4.26-1A8.83,8.83,0,0,1,154.91,349.11Z" transform="translate(-1.44)"/><path d="M163.12,344.08a1.89,1.89,0,0,1-.57-1.39,1.81,1.81,0,0,1,.57-1.37,1.86,1.86,0,0,1,1.35-.54,1.9,1.9,0,0,1,1.35.54,1.84,1.84,0,0,1,.56,1.37,1.92,1.92,0,0,1-.56,1.39,1.87,1.87,0,0,1-1.35.56A1.84,1.84,0,0,1,163.12,344.08Zm2.66,4.43V369h-2.63V348.51Z" transform="translate(-1.44)"/><path d="M187.25,350.4c1.55,1.52,2.33,3.71,2.33,6.59v12H187V357.29a7.14,7.14,0,0,0-1.67-5.1,6,6,0,0,0-4.57-1.77A6.17,6.17,0,0,0,176,352.3a7.76,7.76,0,0,0-1.77,5.52V369h-2.63V348.51h2.63V352a6.68,6.68,0,0,1,2.82-2.87,8.5,8.5,0,0,1,4.16-1A8.26,8.26,0,0,1,187.25,350.4Z" transform="translate(-1.44)"/><path d="M207.48,349.56a8,8,0,0,1,3.08,3.41v-4.46h2.62v21a10,10,0,0,1-1.22,5,8.43,8.43,0,0,1-3.39,3.36,10.24,10.24,0,0,1-5,1.18,10.94,10.94,0,0,1-6.55-1.88,7.92,7.92,0,0,1-3.24-5.1h2.59a6.28,6.28,0,0,0,2.57,3.41,8.11,8.11,0,0,0,4.63,1.28,7.36,7.36,0,0,0,3.57-.85,6,6,0,0,0,2.47-2.49,7.92,7.92,0,0,0,.91-3.9v-5.07a8.31,8.31,0,0,1-3.1,3.47,9,9,0,0,1-5,1.37,9.82,9.82,0,0,1-5-1.31,9.15,9.15,0,0,1-3.49-3.72,12.83,12.83,0,0,1,0-11.09,9,9,0,0,1,3.49-3.68,9.91,9.91,0,0,1,5-1.29A9.23,9.23,0,0,1,207.48,349.56Zm2.06,4.84a7.19,7.19,0,0,0-2.76-2.89,7.45,7.45,0,0,0-3.84-1,7.79,7.79,0,0,0-3.91,1,7,7,0,0,0-2.72,2.84,9.2,9.2,0,0,0-1,4.41,9.43,9.43,0,0,0,1,4.41A7.1,7.1,0,0,0,199,366a7.7,7.7,0,0,0,3.91,1,7.54,7.54,0,0,0,3.84-1,7.19,7.19,0,0,0,2.76-2.89,9.81,9.81,0,0,0,0-8.71Z" transform="translate(-1.44)"/><path d="M220.37,367.67a6,6,0,0,1-2.5-4.45h2.71a3.89,3.89,0,0,0,1.63,2.8,6.4,6.4,0,0,0,3.88,1.07,5.07,5.07,0,0,0,3.36-1,3.11,3.11,0,0,0,1.22-2.51,2.34,2.34,0,0,0-.67-1.73,4.75,4.75,0,0,0-1.71-1.07,27.39,27.39,0,0,0-2.8-.84,28.61,28.61,0,0,1-3.71-1.2,6.31,6.31,0,0,1-2.42-1.79,5.13,5.13,0,0,1-.1-5.95,6.13,6.13,0,0,1,2.55-2,9,9,0,0,1,3.76-.75,8.08,8.08,0,0,1,5.33,1.67,6,6,0,0,1,2.17,4.59h-2.62a4,4,0,0,0-1.41-2.9,5.28,5.28,0,0,0-3.55-1.11,5.15,5.15,0,0,0-3.22.94,2.8,2.8,0,0,0-1.24,2.32,2.71,2.71,0,0,0,.73,2,5,5,0,0,0,1.82,1.21c.73.28,1.7.6,2.93,1A26.6,26.6,0,0,1,230,359a6,6,0,0,1,2.26,1.65,4.41,4.41,0,0,1,1,2.89,5,5,0,0,1-.9,2.94,6.1,6.1,0,0,1-2.51,2.05,8.76,8.76,0,0,1-3.72.75A9.51,9.51,0,0,1,220.37,367.67Z" transform="translate(-1.44)"/><path d="M251.69,350.72v12.73a3.68,3.68,0,0,0,.71,2.59,3.56,3.56,0,0,0,2.52.71h2.4V369h-2.81a4.76,4.76,0,0,1-5.48-5.55V350.72h-2.86v-2.21H249v-5.14h2.66v5.14h5.63v2.21Z" transform="translate(-1.44)"/><path d="M263.91,368a9.34,9.34,0,0,1-3.64-3.68,11.24,11.24,0,0,1-1.34-5.58,11.13,11.13,0,0,1,1.35-5.57A9.57,9.57,0,0,1,264,349.5a10.58,10.58,0,0,1,5.22-1.29,10.71,10.71,0,0,1,5.24,1.29,9.28,9.28,0,0,1,3.67,3.68,12.19,12.19,0,0,1,0,11.13,9.39,9.39,0,0,1-3.72,3.7,10.81,10.81,0,0,1-5.26,1.29A10.46,10.46,0,0,1,263.91,368Zm8.95-1.92a7,7,0,0,0,2.79-2.78,8.92,8.92,0,0,0,1.07-4.56,9.15,9.15,0,0,0-1.05-4.56,6.9,6.9,0,0,0-2.77-2.77,8.12,8.12,0,0,0-7.51,0,6.82,6.82,0,0,0-2.76,2.77,10.61,10.61,0,0,0,0,9.12,6.8,6.8,0,0,0,2.74,2.78,7.66,7.66,0,0,0,3.73.92A7.78,7.78,0,0,0,272.86,366.09Z" transform="translate(-1.44)"/><path d="M294.36,353.18a9.16,9.16,0,0,1,3.51-3.68,9.93,9.93,0,0,1,5.05-1.29,9.22,9.22,0,0,1,4.88,1.31,8.05,8.05,0,0,1,3.19,3.42V341.23h2.63V369H311v-4.58a7.81,7.81,0,0,1-3.08,3.51,9.13,9.13,0,0,1-5,1.37,9.79,9.79,0,0,1-5-1.31,9.09,9.09,0,0,1-3.49-3.72,11.77,11.77,0,0,1-1.26-5.55A11.56,11.56,0,0,1,294.36,353.18ZM310,354.4a7.32,7.32,0,0,0-2.76-2.89,7.48,7.48,0,0,0-3.85-1,7.78,7.78,0,0,0-3.9,1,6.91,6.91,0,0,0-2.72,2.84,9.09,9.09,0,0,0-1,4.41,9.31,9.31,0,0,0,1,4.41,7,7,0,0,0,2.72,2.89,7.69,7.69,0,0,0,3.9,1,7.58,7.58,0,0,0,3.85-1,7.32,7.32,0,0,0,2.76-2.89,9.89,9.89,0,0,0,0-8.71Z" transform="translate(-1.44)"/><path d="M321.07,368a9.4,9.4,0,0,1-3.64-3.68,12.27,12.27,0,0,1,0-11.15,9.43,9.43,0,0,1,3.68-3.68,10.56,10.56,0,0,1,5.21-1.29,10.71,10.71,0,0,1,5.24,1.29,9.37,9.37,0,0,1,3.68,3.68,11.33,11.33,0,0,1,1.33,5.57,11.14,11.14,0,0,1-1.35,5.56,9.39,9.39,0,0,1-3.72,3.7,10.77,10.77,0,0,1-5.25,1.29A10.47,10.47,0,0,1,321.07,368Zm8.95-1.92a7.05,7.05,0,0,0,2.8-2.78,9,9,0,0,0,1.07-4.56,9.15,9.15,0,0,0-1.05-4.56,6.92,6.92,0,0,0-2.78-2.77,8.12,8.12,0,0,0-7.51,0,6.82,6.82,0,0,0-2.76,2.77,10.61,10.61,0,0,0,0,9.12,6.8,6.8,0,0,0,2.74,2.78,8.08,8.08,0,0,0,7.49,0Z" transform="translate(-1.44)"/><path d="M14.94,389.12a1.89,1.89,0,0,1-.57-1.39,1.81,1.81,0,0,1,.57-1.37,1.87,1.87,0,0,1,1.35-.55,1.91,1.91,0,0,1,1.35.55,1.8,1.8,0,0,1,.56,1.37,1.91,1.91,0,0,1-1.91,1.95A1.84,1.84,0,0,1,14.94,389.12Zm2.66,4.43V414H15V393.55Z" transform="translate(-1.44)"/><path d="M39.07,395.44c1.55,1.52,2.33,3.71,2.33,6.59v12H38.81V402.33a7.18,7.18,0,0,0-1.67-5.11,6,6,0,0,0-4.56-1.76,6.18,6.18,0,0,0-4.73,1.88,7.75,7.75,0,0,0-1.77,5.51V414H23.46V393.55h2.62V397a6.68,6.68,0,0,1,2.82-2.87,8.5,8.5,0,0,1,4.16-1A8.25,8.25,0,0,1,39.07,395.44Z" transform="translate(-1.44)"/><path d="M57.35,398.22a9.1,9.1,0,0,1,3.51-3.68,9.91,9.91,0,0,1,5-1.29,9.25,9.25,0,0,1,4.88,1.31A8.09,8.09,0,0,1,74,398V386.26H76.6V414H74v-4.58A7.93,7.93,0,0,1,70.9,413a9.18,9.18,0,0,1-5,1.37A9.82,9.82,0,0,1,60.82,413a9.15,9.15,0,0,1-3.49-3.72,11.78,11.78,0,0,1-1.26-5.56A11.55,11.55,0,0,1,57.35,398.22ZM73,399.44a7.13,7.13,0,0,0-2.76-2.89,7.45,7.45,0,0,0-3.84-1,7.79,7.79,0,0,0-3.91,1,6.94,6.94,0,0,0-2.72,2.83,9.26,9.26,0,0,0-1,4.41,9.44,9.44,0,0,0,1,4.42,7,7,0,0,0,2.72,2.89,7.7,7.7,0,0,0,3.91,1,7.54,7.54,0,0,0,3.84-1A7.19,7.19,0,0,0,73,408.15a9.81,9.81,0,0,0,0-8.71Z" transform="translate(-1.44)"/><path d="M85.29,413a9.31,9.31,0,0,1-3.64-3.67,12.27,12.27,0,0,1,0-11.15,9.43,9.43,0,0,1,3.68-3.68,10.56,10.56,0,0,1,5.21-1.29,10.68,10.68,0,0,1,5.24,1.29,9.31,9.31,0,0,1,3.68,3.68,12.23,12.23,0,0,1,0,11.13A9.3,9.3,0,0,1,95.74,413a10.64,10.64,0,0,1-5.25,1.3A10.37,10.37,0,0,1,85.29,413Zm8.95-1.91a7,7,0,0,0,2.8-2.78,9,9,0,0,0,1.07-4.56,9.15,9.15,0,0,0-1-4.56,6.86,6.86,0,0,0-2.78-2.77,8.12,8.12,0,0,0-7.51,0A6.68,6.68,0,0,0,84,399.23a10.52,10.52,0,0,0,0,9.12,6.78,6.78,0,0,0,2.73,2.78,8.08,8.08,0,0,0,7.49,0Z" transform="translate(-1.44)"/><path d="M131.21,393.55,124.79,414h-2.62l-5.67-17.19L110.83,414h-2.66l-6.42-20.49h2.66l5.11,17.82,5.74-17.82h2.63l5.67,17.86,5.06-17.86Z" transform="translate(-1.44)"/><path d="M149.49,395.44c1.55,1.52,2.33,3.71,2.33,6.59v12h-2.59V402.33a7.18,7.18,0,0,0-1.67-5.11,6,6,0,0,0-4.56-1.76,6.18,6.18,0,0,0-4.73,1.88,7.75,7.75,0,0,0-1.77,5.51V414h-2.62V393.55h2.62V397a6.68,6.68,0,0,1,2.82-2.87,8.5,8.5,0,0,1,4.16-1A8.25,8.25,0,0,1,149.49,395.44Z" transform="translate(-1.44)"/><path d="M160.94,395.76v12.72a3.65,3.65,0,0,0,.71,2.59,3.5,3.5,0,0,0,2.52.72h2.4V414h-2.82a5.76,5.76,0,0,1-4.13-1.3q-1.35-1.29-1.35-4.26V395.76h-2.85v-2.21h2.85V388.4h2.67v5.15h5.63v2.21Z" transform="translate(-1.44)"/><path d="M173.15,413a9.38,9.38,0,0,1-3.64-3.67,11.34,11.34,0,0,1-1.33-5.58,11.13,11.13,0,0,1,1.35-5.57,9.43,9.43,0,0,1,3.68-3.68,11.23,11.23,0,0,1,10.45,0,9.24,9.24,0,0,1,3.68,3.68,12.15,12.15,0,0,1,0,11.13,9.34,9.34,0,0,1-3.71,3.69,10.71,10.71,0,0,1-5.26,1.3A10.4,10.4,0,0,1,173.15,413Zm9-1.91a7,7,0,0,0,2.79-2.78,9,9,0,0,0,1.07-4.56,9.15,9.15,0,0,0-1.05-4.56,6.86,6.86,0,0,0-2.78-2.77,8.1,8.1,0,0,0-7.5,0,6.76,6.76,0,0,0-2.76,2.77,10.61,10.61,0,0,0,0,9.12,6.8,6.8,0,0,0,2.74,2.78,7.78,7.78,0,0,0,3.73.92A7.92,7.92,0,0,0,182.11,411.13Z" transform="translate(-1.44)"/><path d="M218.89,393.55,212.47,414h-2.63l-5.66-17.19L198.51,414h-2.67l-6.41-20.49h2.66l5.1,17.82,5.75-17.82h2.62l5.67,17.86,5.07-17.86Z" transform="translate(-1.44)"/><path d="M236.57,395.44c1.55,1.52,2.32,3.71,2.32,6.59v12H236.3V402.33a7.13,7.13,0,0,0-1.67-5.11,6,6,0,0,0-4.56-1.76,6.21,6.21,0,0,0-4.73,1.88,7.79,7.79,0,0,0-1.76,5.51V414H221V393.55h2.63V397a6.68,6.68,0,0,1,2.82-2.87,8.5,8.5,0,0,1,4.16-1A8.28,8.28,0,0,1,236.57,395.44Z" transform="translate(-1.44)"/><path d="M270.12,387.8V390h-7.28V414h-2.63V390h-7.32V387.8Z" transform="translate(-1.44)"/><path d="M286,393.55V414H283.4v-3.6a6.22,6.22,0,0,1-2.77,2.92,8.66,8.66,0,0,1-4.21,1,8.24,8.24,0,0,1-6-2.27c-1.55-1.52-2.33-3.71-2.33-6.59v-12h2.59v11.67a7.14,7.14,0,0,0,1.67,5.1,6,6,0,0,0,4.56,1.77,6.19,6.19,0,0,0,4.73-1.88,7.76,7.76,0,0,0,1.76-5.52V393.55Z" transform="translate(-1.44)"/><path d="M293.5,386.26V414h-2.63V386.26Z" transform="translate(-1.44)"/><path d="M299.41,412.71a5.92,5.92,0,0,1-2.49-4.45h2.7a3.89,3.89,0,0,0,1.63,2.8,6.43,6.43,0,0,0,3.89,1.07,5.11,5.11,0,0,0,3.36-1,3.14,3.14,0,0,0,1.22-2.51,2.35,2.35,0,0,0-.68-1.73,4.75,4.75,0,0,0-1.71-1.07,27.88,27.88,0,0,0-2.79-.84,26.74,26.74,0,0,1-3.72-1.21A6.18,6.18,0,0,1,298.4,402a5.11,5.11,0,0,1-.09-6,6.13,6.13,0,0,1,2.55-2,9,9,0,0,1,3.75-.75,8.08,8.08,0,0,1,5.33,1.67,6.05,6.05,0,0,1,2.18,4.59h-2.63a3.92,3.92,0,0,0-1.41-2.9,5.25,5.25,0,0,0-3.54-1.11,5.16,5.16,0,0,0-3.23.94,2.8,2.8,0,0,0-1.24,2.32,2.73,2.73,0,0,0,.73,2,4.9,4.9,0,0,0,1.82,1.2c.73.29,1.7.61,2.93,1a26.82,26.82,0,0,1,3.53,1.17,6.08,6.08,0,0,1,2.25,1.65,4.42,4.42,0,0,1,1,2.89,5,5,0,0,1-.91,2.94,6,6,0,0,1-2.51,2,8.73,8.73,0,0,1-3.72.75A9.58,9.58,0,0,1,299.41,412.71Z" transform="translate(-1.44)"/><path d="M316.11,398.22a9,9,0,0,1,3.5-3.68,9.87,9.87,0,0,1,5-1.29,9.18,9.18,0,0,1,5.05,1.35,7.79,7.79,0,0,1,3.06,3.45v-4.5h2.63V414h-2.63V409.5a8.18,8.18,0,0,1-3.1,3.47,9.09,9.09,0,0,1-5,1.37,9.7,9.7,0,0,1-5-1.31,9.18,9.18,0,0,1-3.5-3.72,11.9,11.9,0,0,1-1.25-5.56A11.77,11.77,0,0,1,316.11,398.22Zm15.64,1.22a7.26,7.26,0,0,0-2.76-2.89,7.48,7.48,0,0,0-3.85-1,7.78,7.78,0,0,0-3.9,1,6.94,6.94,0,0,0-2.72,2.83,9.15,9.15,0,0,0-1,4.41,9.33,9.33,0,0,0,1,4.42,7,7,0,0,0,2.72,2.89,7.69,7.69,0,0,0,3.9,1,7.58,7.58,0,0,0,3.85-1,7.32,7.32,0,0,0,2.76-2.89,9.89,9.89,0,0,0,0-8.71Z" transform="translate(-1.44)"/></svg>