<svg id="Layer_1" data-name="Layer 1" xmlns="http://www.w3.org/2000/svg" viewBox="0 0 509.79 459"><path d="M171.93,52.33c-1.12.45-15.88.9-20.58.9-8.94,0-20.35-.23-31.53-.67C119.37,69.78,118,89.68,118,106v8c0,8.27,1.12,14.76,4.92,14.76,6.49,0,15.43-13,22.37-25.94.67-1.35,1.11-1.79,1.78-1.79,1.57,0,2.91,4,2.91,8a16.73,16.73,0,0,1-1.34,6.93c-3.13,6.26-13,26.84-29.75,26.84-18.33,0-18.78-38.25-18.78-39.81-.67-13.64-1.34-30.86-1.34-51.22v-.22C84.26,51,73.08,50.1,72.86,49.87c-2-.67-2-5.81-2-5.81s0-5.15,1.79-5.82c.23,0,9.84-1.34,26.39-2.46.45-15.43,1.57-29.3,2.46-31.31,1.34-1.56,7.6-4.47,9.84-4.47,3.58,0,7.16,2.68,7.6,3.8C119.6,5.37,120,15.88,120,32.43v2.46c5.37-.23,11-.23,17-.23,8.28,0,32.2,1.12,34.44,2.24,1.12,1.12,3.13,6.71,3.13,8.72A11.84,11.84,0,0,1,171.93,52.33Z" transform="translate(-1.44)"/><path d="M239.68,116.07c-3.35,6.26-13.19,26.84-30,26.84-31.31,0-14.09-45.63-25.5-45.63-11,0-25.27,39.14-26.61,42.72v.45c-.9,2.46-6.93,2.46-6.93,2.46s-5.82,0-6.49-2.46c-.22-.23-4-31.54-4-88.57,0-20.79,1.35-44.5,2.69-47.41C144,2.91,150.23,0,152.46,0a11.17,11.17,0,0,1,7.83,3.8c.45,1.57,1.12,12.08,1.12,28.63,0,22.59-1.34,57.47-2.46,81.4,6.26-14.31,18.34-36.67,34.89-36.67,24.15,0,7.15,51.66,20.13,51.66,6.26,0,15.43-13,22.36-25.94.67-1.35,1.12-1.79,1.79-1.79,1.56,0,2.68,4,2.91,8v.44A13.91,13.91,0,0,1,239.68,116.07Z" transform="translate(-1.44)"/><path d="M298.05,116.07c-4.25,8.5-16.55,26.84-37.8,26.84-28.85,0-39.14-19.91-39.14-32.88,0-18.11,16.11-32.87,35.79-32.87,14.53,0,26.16,8,26.16,20.57,0,13.2-12.3,20.35-26.16,20.35a44.33,44.33,0,0,1-14.09-2.46c2,8.5,9.17,12.53,17.44,12.53,17.67,0,26.39-10.07,34.67-25.27.67-1.35.89-1.79,1.78-1.79,1.57,0,2.69,4,2.69,8C299.39,111.6,299.16,114.28,298.05,116.07ZM256.9,91.92c-7.38,0-13.87,6.93-14.76,15.87,1.56.68,4.24.9,7.15.9,7.61,0,17.22-2.24,17.22-8.72C266.51,93.93,261.82,91.92,256.9,91.92Z" transform="translate(-1.44)"/><path d="M105.55,242.84c-7,13.08-27.54,56-62.56,56-38.28,0-38.75-79.84-39.21-83.1-1.4-28.48-2.34-64.43-2.34-106.92,0-43.41,2.8-92.9,5.6-99C9.38,6.61,22.45.54,27.12.54c7.47,0,14.94,5.61,16.34,7.94.93,3.27,2.33,25.21,2.33,59.76,0,42.48-4.2,105-4.2,153.59v16.81c0,17.28,2.34,30.81,10.27,30.81,13.08,0,32.22-27.07,46.69-54.15,1.4-2.8,2.33-3.74,3.73-3.74,3.27,0,5.61,8.41,5.61,16.81v2.8A28.83,28.83,0,0,1,105.55,242.84Z" transform="translate(-1.44)"/><path d="M148,298.87c-41.08,0-74.69-30.82-74.69-68.63S107,161.61,148,161.61c41.55,0,75.17,30.81,75.17,68.63S189.58,298.87,148,298.87Zm0-106.45c-16.8,0-30.81,16.81-30.81,37.82,0,20.54,14,37.81,30.81,37.81,17.28,0,31.28-17.27,31.28-37.81C179.31,209.23,165.31,192.42,148,192.42Z" transform="translate(-1.44)"/><path d="M290,298.87c-41.08,0-74.7-30.82-74.7-68.63s33.62-68.63,74.7-68.63c41.55,0,75.17,30.81,75.17,68.63S331.5,298.87,290,298.87Zm0-106.45c-16.81,0-30.81,16.81-30.81,37.82,0,20.54,14,37.81,30.81,37.81,17.27,0,31.28-17.27,31.28-37.81C321.23,209.23,307.22,192.42,290,192.42Z" transform="translate(-1.44)"/><path d="M436.07,298.87c-12.61,0-24.75-3.74-35.48-9.34,1.4,36,2.8,73.3,3.27,101.77v23.35c0,21-.47,34.08-1.4,36.41S394.52,459,387.05,459h-.47c-4.67,0-17.74-5.6-20.54-8.87-2.8-6.07-6.54-55.09-7-99,0-11.67-.47-22.87-.47-33.61,0-97.57,6.54-150.79,7-151.26,1.4-5.14,13.07-5.6,13.07-5.6s12.61,0,14.48,5.6c0,0,.46,3.27.93,8.87a73.88,73.88,0,0,1,42-13.54c41.55,0,75.16,30.81,75.16,68.63S477.62,298.87,436.07,298.87Zm0-106.45c-26.15,0-37.82,16.81-37.82,37.82,0,20.54,11.67,37.81,37.82,37.81,17.27,0,31.28-17.27,31.28-37.81C467.35,209.23,453.34,192.42,436.07,192.42Z" transform="translate(-1.44)"/><path d="M64.56,354.93V339.46H62.45a.9.9,0,0,1-1-1v-.3a.92.92,0,0,1,1-1h2.11v-1.69c0-5.82,3.86-7.09,7.2-7.09a6.26,6.26,0,0,1,5.9,3.23c.33.63,0,1.05-.64,1.23l-.75.23c-.56.15-.83-.15-1.17-.64a3.73,3.73,0,0,0-3.26-1.57c-2.14,0-4.32.9-4.32,4.61v1.69H79.31a.9.9,0,0,1,1,1v16.74a.88.88,0,0,1-1,1h-.9a.91.91,0,0,1-1-1V339.46H67.52v15.47a.91.91,0,0,1-1,1h-1A.9.9,0,0,1,64.56,354.93Z" transform="translate(-1.44)"/><path d="M86.36,354.89v-16.7a.94.94,0,0,1,1-1h.86a.94.94,0,0,1,1,1v3a6.64,6.64,0,0,1,6.53-4.39c4,0,7.43,2.33,7.43,8.52v9.61a.93.93,0,0,1-1,1h-.87a.92.92,0,0,1-1-1v-9.61c0-4.54-2.37-6-4.73-6-2.07,0-6.31,1.47-6.34,7.51v8.07a.93.93,0,0,1-1,1h-.86A.92.92,0,0,1,86.36,354.89Z" transform="translate(-1.44)"/><path d="M105.77,346.56c0-5.41,3.68-9.8,9.38-9.8a8.15,8.15,0,0,1,7.32,4.09V329.78a.93.93,0,0,1,1-1h.87a.93.93,0,0,1,1,1v25.11a.92.92,0,0,1-1,1h-.87a.93.93,0,0,1-1-1v-2.67a8.06,8.06,0,0,1-7.32,4.1C109.45,356.32,105.77,351.92,105.77,346.56Zm16.78,0c0-4.25-2.93-7.25-7.06-7.25-4.32,0-6.83,3.27-6.83,7.25s2.51,7.2,6.83,7.2A6.88,6.88,0,0,0,122.55,346.56Z" transform="translate(-1.44)"/><path d="M142.1,350.05V339.46h-2.55c-.42,0-.6-.19-.6-.6v-1.09a.53.53,0,0,1,.6-.6h2.55l.56-4.8a.86.86,0,0,1,.94-.83h.49a.8.8,0,0,1,.9.86v4.77h5.44a.55.55,0,0,1,.6.6v1.09a.53.53,0,0,1-.6.6H145v10.77c0,2.74,1.27,3.57,2.7,3.57a2.46,2.46,0,0,0,2.67-2.48,2.55,2.55,0,0,0-.08-.67c0-.45.11-.68.53-.68h1.31a.63.63,0,0,1,.68.49,5.87,5.87,0,0,1,.15,1.24c0,2.59-1.84,4.62-5.26,4.62C144.88,356.32,142.1,355,142.1,350.05Z" transform="translate(-1.44)"/><path d="M156.36,354.89V329.78a.93.93,0,0,1,1-1h.86a.93.93,0,0,1,1,1v11.37a6.65,6.65,0,0,1,6.53-4.39c4,0,7.44,2.33,7.44,8.52v9.61a.93.93,0,0,1-1,1h-.86a.92.92,0,0,1-1-1v-9.61c0-4.54-2.37-6-4.73-6-2.07,0-6.31,1.47-6.35,7.51v8.07a.92.92,0,0,1-1,1h-.86A.92.92,0,0,1,156.36,354.89Z" transform="translate(-1.44)"/><path d="M176.82,330.94a2,2,0,0,1,2.06-2.14,2.12,2.12,0,0,1,0,4.24A2,2,0,0,1,176.82,330.94Zm.63,23.95v-16.7a1,1,0,0,1,1-1h.86a.93.93,0,0,1,1,1v16.7a.92.92,0,0,1-1,1h-.86A.93.93,0,0,1,177.45,354.89Z" transform="translate(-1.44)"/><path d="M186.39,354.89v-16.7a.93.93,0,0,1,1-1h.87a.93.93,0,0,1,1,1v3a6.64,6.64,0,0,1,6.53-4.39c4,0,7.43,2.33,7.43,8.52v9.61a.92.92,0,0,1-1,1h-.86a.93.93,0,0,1-1-1v-9.61c0-4.54-2.36-6-4.73-6-2.06,0-6.3,1.47-6.34,7.51v8.07a.93.93,0,0,1-1,1h-.87A.91.91,0,0,1,186.39,354.89Z" transform="translate(-1.44)"/><path d="M208.64,362.7a1,1,0,0,1-.3-1.39l.26-.45c.31-.64.76-.72,1.36-.3a10.45,10.45,0,0,0,5.93,1.65c4.05,0,6.83-2.48,6.83-6.76v-3.23a8.13,8.13,0,0,1-7.36,4.1c-5.67,0-9.34-4.4-9.34-9.76s3.6-9.8,9.34-9.8a8.19,8.19,0,0,1,7.36,4.13v-2.7a.92.92,0,0,1,1-1h.87a.93.93,0,0,1,1,1v17.49c0,6-4.39,9-9.68,9A12.25,12.25,0,0,1,208.64,362.7Zm14.12-16.14a6.91,6.91,0,0,0-7.1-7.25c-4.31,0-6.79,3.3-6.79,7.25s2.51,7.2,6.83,7.2A6.86,6.86,0,0,0,222.76,346.56Z" transform="translate(-1.44)"/><path d="M230.11,352.82c-.37-.63,0-1.08.6-1.27l.68-.19c.56-.15.9.08,1.27.56a4.67,4.67,0,0,0,4,1.92c2.1,0,3.72-1.24,3.72-3,0-1.42-1.05-2.29-2.63-2.81l-2.66-.86c-2.71-.83-4.47-2.33-4.47-5,0-3,2.33-5.44,6-5.44a5.87,5.87,0,0,1,5.45,3.08c.34.63,0,1.12-.68,1.27l-.6.15c-.56.15-.9-.07-1.27-.6a3.41,3.41,0,0,0-2.82-1.42,3,3,0,0,0-3.3,2.89c0,1.54,1.31,2.29,2.59,2.7l2.77.9c3.35,1,4.36,3.08,4.36,5.14,0,3.42-3,5.45-6.5,5.45A7,7,0,0,1,230.11,352.82Z" transform="translate(-1.44)"/><path d="M258.34,350.05V339.46h-2.56a.52.52,0,0,1-.6-.6v-1.09a.54.54,0,0,1,.6-.6h2.56l.56-4.8a.85.85,0,0,1,.94-.83h.48a.8.8,0,0,1,.91.86v4.77h5.44a.56.56,0,0,1,.6.6v1.09a.54.54,0,0,1-.6.6h-5.44v10.77c0,2.74,1.27,3.57,2.7,3.57a2.45,2.45,0,0,0,2.66-2.48,2.9,2.9,0,0,0-.07-.67c0-.45.11-.68.52-.68h1.32a.62.62,0,0,1,.67.49,5.87,5.87,0,0,1,.15,1.24c0,2.59-1.84,4.62-5.25,4.62C261.11,356.32,258.34,355,258.34,350.05Z" transform="translate(-1.44)"/><path d="M269.71,346.56a9.84,9.84,0,1,1,9.79,9.76A9.85,9.85,0,0,1,269.71,346.56Zm16.78,0a7,7,0,1,0-13.89,0,6.95,6.95,0,1,0,13.89,0Z" transform="translate(-1.44)"/><path d="M302.44,346.56c0-5.41,3.67-9.8,9.38-9.8a8.16,8.16,0,0,1,7.32,4.09V329.78a.93.93,0,0,1,1-1H321a.93.93,0,0,1,1,1v25.11a.93.93,0,0,1-1,1h-.87a.92.92,0,0,1-1-1v-2.67a8.07,8.07,0,0,1-7.32,4.1C306.11,356.32,302.44,351.92,302.44,346.56Zm16.77,0c0-4.25-2.92-7.25-7-7.25-4.32,0-6.83,3.27-6.83,7.25s2.51,7.2,6.83,7.2A6.87,6.87,0,0,0,319.21,346.56Z" transform="translate(-1.44)"/><path d="M324.24,346.56a9.84,9.84,0,1,1,9.8,9.76A9.85,9.85,0,0,1,324.24,346.56Zm16.78,0a7,7,0,1,0-13.89,0,6.95,6.95,0,1,0,13.89,0Z" transform="translate(-1.44)"/><path d="M1.61,391.59c0-5.36,3.61-9.79,9.35-9.79a8.19,8.19,0,0,1,7.36,4.13v-2.71a.91.91,0,0,1,1-1h.87a.93.93,0,0,1,1,1v16.71a.92.92,0,0,1-1,1h-.87a.9.9,0,0,1-1-1v-2.67A8.12,8.12,0,0,1,11,401.35C5.29,401.35,1.61,397,1.61,391.59Zm16.75,0a6.91,6.91,0,0,0-7.1-7.24c-4.32,0-6.79,3.3-6.79,7.24S7,398.8,11.3,398.8A6.86,6.86,0,0,0,18.36,391.59Z" transform="translate(-1.44)"/><path d="M26.05,399.93V383.22a.93.93,0,0,1,1-1h.87a.93.93,0,0,1,1,1v3a6.62,6.62,0,0,1,6.53-4.39c4,0,7.43,2.33,7.43,8.52v9.61a.92.92,0,0,1-1,1H41a.93.93,0,0,1-1-1v-9.61c0-4.54-2.36-6-4.73-6-2.06,0-6.3,1.46-6.34,7.51v8.07a.92.92,0,0,1-1,1H27A.91.91,0,0,1,26.05,399.93Z" transform="translate(-1.44)"/><path d="M45.38,391.59c0-5.4,3.68-9.79,9.38-9.79a8.13,8.13,0,0,1,7.32,4.09V374.82a.93.93,0,0,1,1-1H64a.93.93,0,0,1,1,1v25.11a.92.92,0,0,1-1,1h-.87a.93.93,0,0,1-1-1v-2.67a8,8,0,0,1-7.32,4.09C49.06,401.35,45.38,397,45.38,391.59Zm16.78,0c0-4.24-2.93-7.24-7.06-7.24-4.32,0-6.83,3.27-6.83,7.24s2.51,7.21,6.83,7.21A6.88,6.88,0,0,0,62.16,391.59Z" transform="translate(-1.44)"/><path d="M84.6,400.12l-6.31-16.75c-.26-.71.08-1.16.83-1.16H80a1.08,1.08,0,0,1,1.17.83l5.21,14.07,4.47-13.44a1.13,1.13,0,0,1,1.13-.82h.75a1.09,1.09,0,0,1,1.12.82l4.51,13.44L103.55,383a1.06,1.06,0,0,1,1.13-.83h.9c.75,0,1.09.45.83,1.16l-6.31,16.75a1.09,1.09,0,0,1-1.16.82h-1a1.06,1.06,0,0,1-1.12-.82L92.33,386.9,87.9,400.12a1.08,1.08,0,0,1-1.12.82h-1A1.09,1.09,0,0,1,84.6,400.12Z" transform="translate(-1.44)"/><path d="M109.93,399.93V374.82a.93.93,0,0,1,1-1h.86a.94.94,0,0,1,1,1v11.37a6.62,6.62,0,0,1,6.53-4.39c4,0,7.43,2.33,7.43,8.52v9.61a.93.93,0,0,1-1,1h-.87a.92.92,0,0,1-1-1v-9.61c0-4.54-2.37-6-4.73-6-2.07,0-6.31,1.46-6.34,7.51v8.07a.93.93,0,0,1-1,1h-.86A.92.92,0,0,1,109.93,399.93Z" transform="translate(-1.44)"/><path d="M129.56,391.67a9.8,9.8,0,0,1,10-9.87c4.58,0,8.86,2.74,9.35,8.74.11.64-.3,1-1,1H132.45c-.26,4.16,3,7.24,7.62,7.24a9,9,0,0,0,5.63-1.88,1,1,0,0,1,1.39.12l.3.3a1,1,0,0,1-.22,1.57,10.75,10.75,0,0,1-7.1,2.44C133.62,401.35,129.56,397,129.56,391.67ZM146,389.34a6.06,6.06,0,0,0-6.38-5,7,7,0,0,0-6.94,5Z" transform="translate(-1.44)"/><path d="M153,399.93V383.22a.94.94,0,0,1,1-1h.86a.93.93,0,0,1,1,1v3a6.64,6.64,0,0,1,6.53-4.39c4,0,7.44,2.33,7.44,8.52v9.61a.93.93,0,0,1-1,1H168a.92.92,0,0,1-1-1v-9.61c0-4.54-2.37-6-4.73-6-2.07,0-6.31,1.46-6.35,7.51v8.07a.92.92,0,0,1-1,1H154A.92.92,0,0,1,153,399.93Z" transform="translate(-1.44)"/><path d="M186.31,395.09V384.5h-2.55a.52.52,0,0,1-.6-.6v-1.09a.54.54,0,0,1,.6-.6h2.55l.56-4.8a.86.86,0,0,1,.94-.83h.49a.8.8,0,0,1,.9.86v4.77h5.44a.55.55,0,0,1,.6.6v1.09a.53.53,0,0,1-.6.6H189.2v10.77c0,2.74,1.28,3.57,2.7,3.57a2.46,2.46,0,0,0,2.67-2.48,2.55,2.55,0,0,0-.08-.67c0-.45.12-.68.53-.68h1.31a.63.63,0,0,1,.68.49,5.87,5.87,0,0,1,.15,1.24c0,2.59-1.84,4.61-5.26,4.61C189.09,401.35,186.31,400,186.31,395.09Z" transform="translate(-1.44)"/><path d="M198.43,391.59a9.84,9.84,0,1,1,9.8,9.76A9.85,9.85,0,0,1,198.43,391.59Zm16.78,0a7,7,0,1,0-13.89,0,6.95,6.95,0,1,0,13.89,0Z" transform="translate(-1.44)"/><path d="M231.16,391.59c0-5.4,3.68-9.79,9.39-9.79a8.12,8.12,0,0,1,7.31,4.09V374.82a.94.94,0,0,1,1-1h.86a.94.94,0,0,1,1,1v25.11a.93.93,0,0,1-1,1h-.86a.93.93,0,0,1-1-1v-2.67a8,8,0,0,1-7.31,4.09C234.84,401.35,231.16,397,231.16,391.59Zm16.78,0c0-4.24-2.93-7.24-7.06-7.24-4.31,0-6.83,3.27-6.83,7.24s2.52,7.21,6.83,7.21A6.88,6.88,0,0,0,247.94,391.59Z" transform="translate(-1.44)"/><path d="M253.46,391.59a9.83,9.83,0,1,1,9.79,9.76A9.85,9.85,0,0,1,253.46,391.59Zm16.77,0a6.95,6.95,0,1,0-13.88,0,6.94,6.94,0,1,0,13.88,0Z" transform="translate(-1.44)"/><path d="M291,374.18l.16.34a.38.38,0,0,1-.23.6,4.26,4.26,0,0,0-2.44,4c.23-.07.49-.11.68-.15a1.73,1.73,0,0,1,1.83,1.73,1.94,1.94,0,0,1-2.17,2c-1.8,0-2.25-1.84-2.25-2.89a6.22,6.22,0,0,1,3.82-5.86A.42.42,0,0,1,291,374.18Z" transform="translate(-1.44)"/><path d="M290.87,391.67a9.81,9.81,0,0,1,10-9.87c4.58,0,8.86,2.74,9.34,8.74.12.64-.3,1-1,1h-15.5c-.27,4.16,3,7.24,7.62,7.24a9.07,9.07,0,0,0,5.63-1.88,1,1,0,0,1,1.38.12l.3.3a1,1,0,0,1-.22,1.57,10.74,10.74,0,0,1-7.09,2.44C294.93,401.35,290.87,397,290.87,391.67Zm16.48-2.33a6.06,6.06,0,0,0-6.38-5,7,7,0,0,0-6.94,5Z" transform="translate(-1.44)"/><path d="M313.28,399.93V383.22a.94.94,0,0,1,1-1h.86a.93.93,0,0,1,1,1v2.93a6.73,6.73,0,0,1,12.61,0,6.78,6.78,0,0,1,6.57-4.39c4.28,0,7.39,2.33,7.39,8.52v9.61a.92.92,0,0,1-1,1h-.87a.9.9,0,0,1-1-1v-9.61c0-4.54-2.33-6-4.69-6-1.92,0-5.56,1.31-5.75,7.21v8.37a.92.92,0,0,1-1,1h-.86a.92.92,0,0,1-1-1v-9.61c0-4.54-2.29-6-4.69-6-2.07,0-5.71,1.46-5.74,7.51v8.07a.93.93,0,0,1-1,1h-.86A.92.92,0,0,1,313.28,399.93Z" transform="translate(-1.44)"/><path d="M29.2,421a2,2,0,0,1,2.07-2.14,2.12,2.12,0,0,1,0,4.24A2,2,0,0,1,29.2,421Zm.64,24V428.26a.94.94,0,0,1,1-1h.87a.91.91,0,0,1,1,1V445a.91.91,0,0,1-1,1h-.87A.92.92,0,0,1,29.84,445Z" transform="translate(-1.44)"/><path d="M38.77,445V428.26a.94.94,0,0,1,1-1h.86a.93.93,0,0,1,1,1v3a6.64,6.64,0,0,1,6.54-4.39c4,0,7.43,2.33,7.43,8.52V445a.93.93,0,0,1-1,1h-.86a.92.92,0,0,1-1-1v-9.61c0-4.54-2.37-6-4.73-6-2.07,0-6.31,1.46-6.35,7.51V445a.92.92,0,0,1-1,1h-.86A.92.92,0,0,1,38.77,445Z" transform="translate(-1.44)"/><path d="M69.85,436.63c0-5.4,3.68-9.79,9.38-9.79a8.13,8.13,0,0,1,7.32,4.09V419.86a.93.93,0,0,1,1-1h.87a.93.93,0,0,1,1,1V445a.92.92,0,0,1-1,1h-.87a.93.93,0,0,1-1-1V442.3a8,8,0,0,1-7.32,4.09C73.53,446.39,69.85,442,69.85,436.63Zm16.78,0c0-4.24-2.93-7.24-7.06-7.24-4.32,0-6.83,3.27-6.83,7.24s2.51,7.21,6.83,7.21A6.88,6.88,0,0,0,86.63,436.63Z" transform="translate(-1.44)"/><path d="M92.89,436.63a9.84,9.84,0,1,1,9.8,9.76A9.85,9.85,0,0,1,92.89,436.63Zm16.78,0a7,7,0,1,0-13.89,0,6.95,6.95,0,1,0,13.89,0Z" transform="translate(-1.44)"/><path d="M120.4,445.16l-6.3-16.75c-.27-.71.07-1.16.82-1.16h.87a1.07,1.07,0,0,1,1.16.83l5.22,14.07,4.47-13.44a1.12,1.12,0,0,1,1.12-.82h.75a1.11,1.11,0,0,1,1.13.82l4.5,13.44,5.22-14.07a1.06,1.06,0,0,1,1.13-.83h.9c.75,0,1.09.45.82,1.16l-6.3,16.75a1.09,1.09,0,0,1-1.17.82h-1a1.07,1.07,0,0,1-1.13-.82l-4.46-13.22-4.43,13.22a1.09,1.09,0,0,1-1.13.82h-1A1.09,1.09,0,0,1,120.4,445.16Z" transform="translate(-1.44)"/><path d="M145.78,445V428.26a.93.93,0,0,1,1-1h.86a.93.93,0,0,1,1,1v3a6.62,6.62,0,0,1,6.53-4.39c4,0,7.43,2.33,7.43,8.52V445a.92.92,0,0,1-1,1h-.87a.93.93,0,0,1-1-1v-9.61c0-4.54-2.36-6-4.73-6-2.06,0-6.3,1.46-6.34,7.51V445a.93.93,0,0,1-1,1h-.86A.91.91,0,0,1,145.78,445Z" transform="translate(-1.44)"/><path d="M168.82,440.13V429.54h-2.55c-.42,0-.6-.19-.6-.6v-1.09a.53.53,0,0,1,.6-.6h2.55l.56-4.8a.86.86,0,0,1,.94-.83h.49a.8.8,0,0,1,.9.86v4.77h5.44a.55.55,0,0,1,.6.6v1.09a.53.53,0,0,1-.6.6h-5.44v10.77c0,2.74,1.28,3.57,2.7,3.57a2.46,2.46,0,0,0,2.67-2.48,2.55,2.55,0,0,0-.08-.67c0-.45.12-.68.53-.68h1.31a.63.63,0,0,1,.68.49,5.87,5.87,0,0,1,.15,1.24c0,2.59-1.84,4.61-5.26,4.61C171.6,446.39,168.82,445,168.82,440.13Z" transform="translate(-1.44)"/><path d="M180.19,436.63a9.84,9.84,0,1,1,9.8,9.76A9.85,9.85,0,0,1,180.19,436.63Zm16.78,0a7,7,0,1,0-13.89,0,6.95,6.95,0,1,0,13.89,0Z" transform="translate(-1.44)"/><path d="M207.52,445.16l-6.31-16.75c-.26-.71.07-1.16.83-1.16h.86a1.06,1.06,0,0,1,1.16.83l5.22,14.07,4.47-13.44a1.13,1.13,0,0,1,1.12-.82h.75a1.1,1.1,0,0,1,1.13.82l4.5,13.44,5.22-14.07a1.06,1.06,0,0,1,1.13-.83h.9c.75,0,1.09.45.82,1.16L223,445.16a1.09,1.09,0,0,1-1.17.82h-1a1.06,1.06,0,0,1-1.12-.82l-4.47-13.22-4.43,13.22a1.09,1.09,0,0,1-1.13.82h-1.05A1.08,1.08,0,0,1,207.52,445.16Z" transform="translate(-1.44)"/><path d="M232.29,445V428.26a.93.93,0,0,1,1-1h.87a.93.93,0,0,1,1,1v3a6.62,6.62,0,0,1,6.53-4.39c4,0,7.43,2.33,7.43,8.52V445a.92.92,0,0,1-1,1h-.86a.93.93,0,0,1-1-1v-9.61c0-4.54-2.36-6-4.73-6-2.06,0-6.3,1.46-6.34,7.51V445a.92.92,0,0,1-1,1h-.87A.91.91,0,0,1,232.29,445Z" transform="translate(-1.44)"/><path d="M282.47,420.72v.45a.92.92,0,0,1-1,1h-8.15V445a.92.92,0,0,1-1,1h-.94a.92.92,0,0,1-1-1V422.15h-8.11a.93.93,0,0,1-1-1v-.45a.93.93,0,0,1,1-1h19.22A.92.92,0,0,1,282.47,420.72Z" transform="translate(-1.44)"/><path d="M279.8,437.91v-9.65a1,1,0,0,1,1-1h.86a.93.93,0,0,1,1,1v9.65c0,4.51,2.37,5.93,4.73,5.93,2.07,0,6.31-1.46,6.35-7.51v-8.07a.93.93,0,0,1,1-1h.86a.93.93,0,0,1,1,1V445a.93.93,0,0,1-1,1h-.86a.92.92,0,0,1-1-1v-3a6.61,6.61,0,0,1-6.53,4.39C283.26,446.39,279.8,444.07,279.8,437.91Z" transform="translate(-1.44)"/><path d="M301.65,445V419.86a.93.93,0,0,1,1-1h.86a.92.92,0,0,1,1,1V445a.91.91,0,0,1-1,1h-.86A.92.92,0,0,1,301.65,445Z" transform="translate(-1.44)"/><path d="M308,442.9c-.37-.63,0-1.09.6-1.27l.68-.19c.56-.15.9.07,1.28.56a4.65,4.65,0,0,0,4,1.92c2.11,0,3.72-1.24,3.72-3,0-1.42-1.05-2.29-2.63-2.81l-2.66-.86c-2.71-.83-4.47-2.33-4.47-5,0-3,2.33-5.44,6-5.44a5.84,5.84,0,0,1,5.44,3.08c.34.63,0,1.12-.68,1.27l-.6.15c-.56.15-.9-.07-1.27-.6a3.41,3.41,0,0,0-2.82-1.42,3,3,0,0,0-3.3,2.89c0,1.53,1.31,2.29,2.59,2.7l2.78.9c3.34,1,4.35,3.08,4.35,5.14,0,3.42-3,5.44-6.49,5.44A7.06,7.06,0,0,1,308,442.9Z" transform="translate(-1.44)"/><path d="M322.85,436.63c0-5.36,3.61-9.79,9.35-9.79a8.19,8.19,0,0,1,7.36,4.13v-2.71a.91.91,0,0,1,1-1h.87a.93.93,0,0,1,1,1V445a.93.93,0,0,1-1,1h-.87a.89.89,0,0,1-1-1V442.3a8.12,8.12,0,0,1-7.36,4.09C326.53,446.39,322.85,442,322.85,436.63Zm16.74,0a6.9,6.9,0,0,0-7.09-7.24c-4.32,0-6.79,3.3-6.79,7.24s2.51,7.21,6.83,7.21A6.85,6.85,0,0,0,339.59,436.63Z" transform="translate(-1.44)"/></svg>