<svg id="Layer_1" data-name="Layer 1" xmlns="http://www.w3.org/2000/svg" viewBox="0 0 129.95 117"><path d="M43.46,13.34c-.29.11-4.05.23-5.25.23-2.28,0-5.19-.06-8-.17-.11,4.39-.45,9.46-.45,13.62v2.05c0,2.11.28,3.77,1.25,3.77,1.66,0,3.94-3.31,5.7-6.62.17-.34.29-.45.46-.45.4,0,.74,1,.74,2.05a4.24,4.24,0,0,1-.34,1.77c-.8,1.59-3.31,6.84-7.58,6.84-4.68,0-4.79-9.75-4.79-10.15-.17-3.48-.34-7.87-.34-13v-.06c-3.71-.17-6.56-.4-6.62-.46-.51-.17-.51-1.48-.51-1.48s0-1.31.46-1.48c.05,0,2.5-.34,6.72-.63a50.75,50.75,0,0,1,.63-8A5.6,5.6,0,0,1,28,0,2.58,2.58,0,0,1,30,1a47.72,47.72,0,0,1,.28,7.3v.62c1.37-.05,2.79-.05,4.33-.05,2.11,0,8.21.28,8.78.57a5.35,5.35,0,0,1,.8,2.22A3,3,0,0,1,43.46,13.34Z"/><path d="M60.73,29.59c-.86,1.59-3.37,6.84-7.64,6.84-8,0-3.59-11.63-6.5-11.63s-6.44,10-6.78,10.89v.11c-.23.63-1.77.63-1.77.63s-1.48,0-1.65-.63c-.06-.06-1-8-1-22.57,0-5.31.34-11.35.68-12.09A5.19,5.19,0,0,1,38.5,0a2.82,2.82,0,0,1,2,1,57.67,57.67,0,0,1,.29,7.3c0,5.75-.35,14.65-.63,20.75,1.59-3.65,4.67-9.35,8.89-9.35,6.16,0,1.83,13.17,5.13,13.17,1.6,0,3.94-3.31,5.7-6.62.17-.34.29-.45.46-.45.4,0,.68,1,.74,2.05v.11A3.55,3.55,0,0,1,60.73,29.59Z"/><path d="M75.6,29.59c-1.08,2.16-4.21,6.84-9.63,6.84-7.35,0-10-5.08-10-8.38,0-4.62,4.11-8.38,9.13-8.38,3.7,0,6.67,2,6.67,5.24,0,3.37-3.14,5.19-6.67,5.19a11.37,11.37,0,0,1-3.6-.63A4.22,4.22,0,0,0,66,32.66c4.5,0,6.73-2.56,8.84-6.44.17-.34.22-.45.45-.45.4,0,.69,1,.69,2.05A3.47,3.47,0,0,1,75.6,29.59ZM65.12,23.43c-1.89,0-3.54,1.77-3.77,4.05a5.32,5.32,0,0,0,1.83.23c1.94,0,4.39-.57,4.39-2.23S66.37,23.43,65.12,23.43Z"/><path d="M26.54,61.9c-1.79,3.33-7,14.28-15.95,14.28C.83,76.18.71,55.83.59,55,.24,47.74,0,38.58,0,27.75,0,16.68.71,4.07,1.43,2.52,2,1.69,5.35.14,6.54.14a6,6,0,0,1,4.17,2c.24.83.6,6.43.6,15.23,0,10.83-1.08,26.78-1.08,39.16v4.28c0,4.4.6,7.85,2.62,7.85,3.33,0,8.21-6.9,11.9-13.8.36-.71.6-1,.95-1,.84,0,1.43,2.14,1.43,4.28v.72A7.43,7.43,0,0,1,26.54,61.9Z"/><path d="M37.37,76.18c-10.48,0-19-7.85-19-17.49s8.56-17.5,19-17.5,19.16,7.86,19.16,17.5S48,76.18,37.37,76.18Zm0-27.13c-4.29,0-7.86,4.28-7.86,9.64s3.57,9.64,7.86,9.64,8-4.41,8-9.64S41.77,49.05,37.37,49.05Z"/><path d="M73.54,76.18c-10.47,0-19-7.85-19-17.49s8.57-17.5,19-17.5S92.7,49.05,92.7,58.69,84.13,76.18,73.54,76.18Zm0-27.13c-4.28,0-7.85,4.28-7.85,9.64s3.57,9.64,7.85,9.64,8-4.41,8-9.64S77.94,49.05,73.54,49.05Z"/><path d="M110.79,76.18a19.67,19.67,0,0,1-9.05-2.38c.36,9.16.72,18.68.84,25.94v6c0,5.36-.12,8.69-.36,9.29a5.1,5.1,0,0,1-3.93,2h-.12a11.54,11.54,0,0,1-5.23-2.26c-.72-1.55-1.67-14-1.79-25.23,0-3-.12-5.83-.12-8.57,0-24.87,1.67-38.44,1.79-38.56.35-1.3,3.33-1.42,3.33-1.42s3.21,0,3.69,1.42c0,0,.12.84.24,2.27a18.76,18.76,0,0,1,10.71-3.46c10.59,0,19.16,7.86,19.16,17.5S121.38,76.18,110.79,76.18Zm0-27.13c-6.67,0-9.64,4.28-9.64,9.64s3,9.64,9.64,9.64c4.4,0,8-4.41,8-9.64S115.19,49.05,110.79,49.05Z"/></svg>